<?xml version="1.0" encoding="utf-8"?>
<!-- Generator: Adobe Illustrator 26.3.1, SVG Export Plug-In . SVG Version: 6.00 Build 0)  -->
<svg version="1.1" id="Layer_1" xmlns:svgjs="http://svgjs.com/svgjs"
	 xmlns="http://www.w3.org/2000/svg" xmlns:xlink="http://www.w3.org/1999/xlink" x="0px" y="0px" viewBox="0 0 6664.6 6664.6"
	 style="enable-background:new 0 0 6664.6 6664.6;" xml:space="preserve">
<style type="text/css">
	.st0{fill:url(#SVGID_1_);}
	.st1{fill:url(#SVGID_00000086651979173078188410000003088299794635535284_);}
	.st2{fill:url(#SVGID_00000003794643434639062720000016397328975783253171_);}
	.st3{fill:url(#SVGID_00000150792331876399030830000004227603918941875328_);}
	.st4{fill:url(#SVGID_00000154414983775893169990000006799624593897624204_);}
	.st5{fill:url(#SVGID_00000125601361954662251410000015879665074377848976_);}
	.st6{fill:url(#SVGID_00000066514856833812822810000001597626028849238960_);}
</style>
<g>
	<g>
		
			<linearGradient id="SVGID_1_" gradientUnits="userSpaceOnUse" x1="1654.4083" y1="5003.7642" x2="2587.1987" y2="4465.2197" gradientTransform="matrix(1 0 0 -1 0 6667.1274)">
			<stop  offset="0" style="stop-color:#7367F0"/>
			<stop  offset="1" style="stop-color:#8F85F3"/>
		</linearGradient>
		<path class="st0" d="M1583.4,1933.1c0-290.4,237.6-541.2,541.2-541.2c290.4,0,541.2,237.6,541.2,541.2
			c0,290.4-237.6,541.2-541.2,541.2S1583.4,2236.7,1583.4,1933.1z"/>
		
			<linearGradient id="SVGID_00000160192425951458221640000009330142474118824580_" gradientUnits="userSpaceOnUse" x1="4078.6841" y1="4997.7397" x2="5006.3267" y2="4462.1655" gradientTransform="matrix(1 0 0 -1 0 6667.1274)">
			<stop  offset="0" style="stop-color:#7367F0"/>
			<stop  offset="1" style="stop-color:#8F85F3"/>
		</linearGradient>
		<path style="fill:url(#SVGID_00000160192425951458221640000009330142474118824580_);" d="M5081.3,1933.1
			c0,290.4-237.6,541.2-541.2,541.2c-290.4,0-541.2-237.6-541.2-541.2c0-290.4,237.6-541.2,541.2-541.2
			C4843.7,1405.1,5081.3,1642.7,5081.3,1933.1z"/>
		
			<linearGradient id="SVGID_00000068668418517111137400000001822473260178192259_" gradientUnits="userSpaceOnUse" x1="1732.0426" y1="2807.5515" x2="4024.948" y2="1483.7487" gradientTransform="matrix(1 0 0 -1 0 6667.1274)">
			<stop  offset="0" style="stop-color:#7367F0"/>
			<stop  offset="1" style="stop-color:#8F85F3"/>
		</linearGradient>
		<path style="fill:url(#SVGID_00000068668418517111137400000001822473260178192259_);" d="M3814.1,5167
			c-778.8,422.4-1676.4-501.6-1993.1-1267.2c-52.8-132,13.2-277.2,145.2-343.2c26.4-13.2,66-26.4,105.6-26.4
			c105.6,0,198,66,237.6,158.4c237.6,580.8,646.8,686.4,1597.2,858C3906.5,4559.8,4698.5,4691.8,3814.1,5167z"/>
	</g>
	<g>
		
			<linearGradient id="SVGID_00000161616118332380838140000006128311671172572034_" gradientUnits="userSpaceOnUse" x1="4372.9717" y1="5427.0029" x2="6459.5146" y2="5427.0029" gradientTransform="matrix(1 0 0 -1 0 6667.1274)">
			<stop  offset="0" style="stop-color:#7367F0"/>
			<stop  offset="1" style="stop-color:#8F85F3"/>
		</linearGradient>
		<path style="fill:url(#SVGID_00000161616118332380838140000006128311671172572034_);" d="M6203.2,2289.5
			c-145.2,0-264-118.8-264-264V982.7c0-145.2-118.8-264-264-264H4632.5c-145.2,0-264-118.8-264-264s118.8-264,264-264h1042.8
			c435.6,0,778.8,356.4,778.8,778.8v1042.8C6467.2,2170.7,6348.4,2289.5,6203.2,2289.5z"/>
		
			<linearGradient id="SVGID_00000173159920016546876390000009620059529686378677_" gradientUnits="userSpaceOnUse" x1="197.4051" y1="5420.4033" x2="2285.1885" y2="5420.4033" gradientTransform="matrix(1 0 0 -1 0 6667.1274)">
			<stop  offset="0" style="stop-color:#7367F0"/>
			<stop  offset="1" style="stop-color:#8F85F3"/>
		</linearGradient>
		<path style="fill:url(#SVGID_00000173159920016546876390000009620059529686378677_);" d="M461.4,2289.5
			c-145.2,0-264-118.8-264-264V982.7c0-422.4,356.4-778.8,778.8-778.8H2019c145.2,0,264,118.8,264,264s-118.8,264-264,264H976.2
			c-145.2,0-264,118.8-264,264v1042.8C725.4,2170.7,606.6,2289.5,461.4,2289.5z"/>
		
			<linearGradient id="SVGID_00000048465089170985410900000006010723747103780747_" gradientUnits="userSpaceOnUse" x1="4372.9717" y1="1242.7249" x2="6460.7549" y2="1242.7249" gradientTransform="matrix(1 0 0 -1 0 6667.1274)">
			<stop  offset="0" style="stop-color:#7367F0"/>
			<stop  offset="1" style="stop-color:#8F85F3"/>
		</linearGradient>
		<path style="fill:url(#SVGID_00000048465089170985410900000006010723747103780747_);" d="M5675.2,6473.8H4632.5
			c-145.2,0-264-118.8-264-264c0-145.2,118.8-264,264-264h1042.8c145.2,0,264-118.8,264-264V4639c0-145.2,118.8-264,264-264
			c145.2,0,264,118.8,264,264v1042.8C6467.2,6117.4,6110.8,6473.8,5675.2,6473.8z"/>
		
			<linearGradient id="SVGID_00000169528340555775690370000013865269012743538622_" gradientUnits="userSpaceOnUse" x1="197.4051" y1="1236.1251" x2="2285.1885" y2="1236.1251" gradientTransform="matrix(1 0 0 -1 0 6667.1274)">
			<stop  offset="0" style="stop-color:#7367F0"/>
			<stop  offset="1" style="stop-color:#8F85F3"/>
		</linearGradient>
		<path style="fill:url(#SVGID_00000169528340555775690370000013865269012743538622_);" d="M2019,6473.8H976.2
			c-435.6,0-778.8-356.4-778.8-778.8V4652.2c0-145.2,118.8-264,264-264s264,118.8,264,264V5695c0,145.2,118.8,264,264,264h1042.8
			c145.2,0,264,118.8,264,264C2282.9,6355,2164.1,6473.8,2019,6473.8z"/>
	</g>
</g>
</svg>
